<svg preserveAspectRatio="none" width="100%" height="100%" overflow="visible" style="display: block;" viewBox="0 0 27 22" fill="none" xmlns="http://www.w3.org/2000/svg">
<g id="github-copilot-icon 1" clip-path="url(#clip0_321_5212)">
<path id="Vector" d="M9.39737 13.7941C9.39737 13.1982 9.8804 12.7151 10.4763 12.7151C11.0722 12.7151 11.5553 13.1982 11.5553 13.7941V15.7828C11.5553 16.3787 11.0722 16.8618 10.4763 16.8618C9.88045 16.8618 9.39737 16.3787 9.39737 15.7828V13.7941ZM16.0041 12.7151C15.4093 12.7151 14.9262 13.1982 14.9262 13.7941V15.7828C14.9262 16.3787 15.4093 16.8618 16.0041 16.8618C16.6 16.8618 17.0831 16.3787 17.0831 15.7828V13.7941C17.0831 13.1982 16.6001 12.7151 16.0041 12.7151Z" fill="var(--fill-0, black)"/>
<path id="Vector_2" fill-rule="evenodd" clip-rule="evenodd" d="M26.5359 12.77V15.744C26.5348 16.1281 26.3443 16.5027 26.0347 16.7293C22.3775 19.4065 17.8648 21.5602 13.268 21.5602C8.18177 21.5602 3.09022 18.6298 0.501396 16.7294C0.191729 16.5027 0.00126356 16.1282 0.00017519 15.7441V12.77C0.00017525 12.38 0.124677 12.0001 0.355554 11.6857L1.16318 10.5929C1.59521 10.0066 2.23895 9.85127 2.92427 9.85127C3.18278 6.89955 3.79465 4.79273 5.25773 3.25087C8.0435 0.299152 11.7422 0.000109076 13.268 0.000109076C14.7938 0.000109076 18.4925 0.299152 21.2782 3.25081C22.7393 4.79267 23.3532 6.8995 23.6118 9.85122C24.2992 9.85122 24.9386 10.0034 25.3717 10.5929L26.1793 11.6878C26.4113 12.0028 26.5358 12.3794 26.5358 12.77H26.5359ZM21.4741 11.4186C21.439 10.7418 20.8889 10.4758 20.3164 10.2875C19.7131 10.6663 18.9768 10.8153 18.2713 10.8153C17.5222 10.8153 16.124 10.6354 14.961 9.47454C14.6673 9.18301 14.4672 8.72543 14.331 8.21788C13.9785 8.18206 13.6245 8.16325 13.2702 8.16149C12.9541 8.16149 12.5913 8.17958 12.2051 8.21788C12.0689 8.72543 11.8677 9.18301 11.5751 9.47454C10.4142 10.6355 9.01391 10.8153 8.2648 10.8153C7.55933 10.8153 6.82089 10.6673 6.21757 10.2875C5.64722 10.4747 5.10028 10.745 5.06302 11.4186C5.00238 12.6912 4.99709 13.9638 4.99176 15.2354C4.98963 15.8738 4.98751 16.5133 4.97683 17.1517C4.98004 17.5231 5.20352 17.8679 5.54081 18.0211C8.2861 19.2714 10.8813 19.9013 13.2702 19.9013C15.6547 19.9013 18.25 19.2714 20.9931 18.0211C21.3304 17.8679 21.555 17.5231 21.5571 17.1517C21.5901 15.2428 21.5635 13.3264 21.472 11.4186H21.4741V11.4186ZM5.57274 8.75735C6.02068 9.20426 6.86666 9.50325 7.77851 9.50325C8.47548 9.50325 9.80132 9.3543 10.8962 8.24234C11.3772 7.77844 11.6762 6.61756 11.6432 5.43958C11.6092 4.49472 11.3442 3.71477 10.9462 3.38385C10.5153 3.00184 9.53638 2.83583 8.44143 2.93586C7.28055 3.05185 6.30267 3.43278 5.80472 3.96375C4.72682 5.14168 4.95874 8.12635 5.57274 8.75735ZM12.3391 5.85461C12.3721 6.03653 12.3891 6.23554 12.4051 6.45151C12.4051 6.60051 12.4051 6.75055 12.3891 6.91546C12.7211 6.8825 13.0031 6.8825 13.268 6.8825C13.533 6.8825 13.815 6.8825 14.147 6.91546C14.1299 6.75055 14.1299 6.60051 14.1299 6.45151C14.147 6.23554 14.164 6.03653 14.197 5.85461C13.8479 5.8216 13.533 5.8046 13.268 5.8046C13.0031 5.8046 12.6871 5.8216 12.3391 5.85461ZM14.8929 5.43958C14.8599 6.61751 15.1589 7.77844 15.6399 8.2424C16.7337 9.3543 18.0606 9.50325 18.7575 9.50325C19.6695 9.50325 20.5154 9.20426 20.9633 8.75735C21.5773 8.12635 21.8093 5.14168 20.7314 3.96375C20.2334 3.43278 19.2555 3.05185 18.0947 2.93586C16.9997 2.83583 16.0208 3.00184 15.5898 3.38385C15.1919 3.71477 14.9269 4.49472 14.8929 5.43958Z" fill="var(--fill-0, black)"/>
</g>
<defs>
<clipPath id="clip0_321_5212">
<rect width="26.5355" height="21.5601" fill="white"/>
</clipPath>
</defs>
</svg>
