<svg preserveAspectRatio="none" width="100%" height="100%" overflow="visible" style="display: block;" viewBox="0 0 88 19" fill="none" xmlns="http://www.w3.org/2000/svg">
<g id="Logo.svg" clip-path="url(#clip0_321_5219)">
<path id="Vector" d="M3.68829 12.4615L7.38611 10.3934L7.44797 10.2132L7.38611 10.1136H7.20526L6.58658 10.0756L4.47354 10.0187L2.64129 9.9428L0.866154 9.84794L0.4188 9.75307L0 9.20286L0.0428318 8.92775L0.4188 8.67636L0.956577 8.72379L2.14635 8.80443L3.93101 8.92775L5.22548 9.00364L7.14339 9.20286H7.44797L7.49081 9.07953L7.38611 9.00364L7.3052 8.92775L5.45867 7.68028L3.45986 6.36167L2.41286 5.60275L1.84653 5.21855L1.56098 4.85806L1.43724 4.07069L1.95123 3.50624L2.64129 3.55368L2.81738 3.60111L3.51697 4.13709L5.01132 5.2897L6.96255 6.72215L7.24809 6.95931L7.36231 6.87868L7.37659 6.82176L7.24809 6.60831L6.18681 4.69679L5.05415 2.75207L4.54969 1.94572L4.41643 1.46191C4.36884 1.2627 4.33553 1.09668 4.33553 0.892726L4.9209 0.100608L5.24452 -0.00374345L6.02501 0.100608L6.35338 0.385201L6.83881 1.49037L7.62406 3.23114L8.84239 5.59801L9.19932 6.3L9.38968 6.94983L9.46107 7.14904H9.5848V7.0352L9.68475 5.70236L9.87035 4.06594L10.0512 1.95995L10.1131 1.36705L10.4081 0.655565L10.9935 0.271364L11.4504 0.489552L11.8263 1.02554L11.774 1.37179L11.5503 2.81848L11.1125 5.08574L10.8269 6.60357H10.9935L11.1839 6.41384L11.9548 5.39405L13.2493 3.78135L13.8204 3.14102L14.4867 2.43427L14.915 2.09751H15.724L16.3189 2.97975L16.0524 3.89045L15.2196 4.94344L14.5295 5.83517L13.5396 7.16327L12.9209 8.22575L12.978 8.31113L13.1256 8.2969L15.3623 7.82258L16.5711 7.60439L18.0131 7.35774L18.6651 7.66131L18.7365 7.96962L18.4795 8.60047L16.9376 8.97993L15.1291 9.34041L12.4355 9.976L12.4022 9.99972L12.4403 10.0472L13.6538 10.161L14.1726 10.1894H15.4432L17.8085 10.3649L18.4272 10.7729L18.7984 11.2709L18.7365 11.6504L17.7847 12.1342L16.4998 11.8306L13.5015 11.1191L12.4736 10.863H12.3308V10.9484L13.1874 11.7832L14.7579 13.1967L16.7234 15.0181L16.8234 15.4687L16.5711 15.8244L16.3046 15.7865L14.5771 14.4916L13.9108 13.9081L12.4022 12.6417H12.3022V12.7745L12.6497 13.282L14.4867 16.0331L14.5818 16.8774L14.4486 17.1525L13.9727 17.3185L13.4492 17.2237L12.3736 15.72L11.2648 14.0267L10.3701 12.5089L10.2606 12.5705L9.73234 18.2387L9.48486 18.528L8.91377 18.7462L8.43786 18.3857L8.18563 17.8023L8.43786 16.6497L8.74245 15.1461L8.98992 13.9508L9.2136 12.4662L9.34685 11.9729L9.33733 11.9397L9.22787 11.9539L8.10473 13.4907L6.39621 15.7912L5.04463 17.2331L4.72102 17.3612L4.15944 17.0719L4.21179 16.5549L4.52589 16.0948L6.39621 13.7232L7.52412 12.2528L8.25226 11.4037L8.2475 11.2804H8.20467L3.23618 14.4963L2.35099 14.6101L1.97026 14.2544L2.01785 13.671L2.1987 13.4812L3.69305 12.4567L3.68829 12.4615Z" fill="var(--fill-0, #D97757)"/>
<path id="Vector_2" d="M30.6866 15.9091C28.2975 15.9091 26.6652 14.581 25.8942 12.5366C25.4916 11.4714 25.293 10.3403 25.3088 9.20214C25.3088 5.77279 26.8508 3.39169 30.2583 3.39169C32.5474 3.39169 33.9609 4.38777 34.7651 6.76413H35.7455L35.6123 3.48656C34.2416 2.60432 32.5284 2.15845 30.4439 2.15845C27.5075 2.15845 25.009 3.46758 23.6194 5.82971C22.9016 7.07703 22.5365 8.49494 22.5628 9.9326C22.5628 12.5556 23.805 14.8798 26.1369 16.1699C27.4132 16.8496 28.8451 17.1864 30.2916 17.147C32.5664 17.147 34.3701 16.7154 35.9692 15.9612L36.3832 12.3469H35.3838C34.7842 13.9975 34.0703 14.9889 32.8853 15.5154C32.3047 15.7763 31.5718 15.9091 30.6866 15.9091ZM40.99 3.39169L41.0852 1.779H40.4094L37.4017 2.68021V3.16876L38.7342 3.78538V15.0648C38.7342 15.8332 38.3392 16.0039 37.3065 16.132V16.9573H42.4225V16.132C41.385 16.0039 40.9948 15.8332 40.9948 15.0648V3.39644L40.99 3.39169ZM61.3351 17.147H61.7301L65.19 16.4925V15.6482L64.7046 15.6102C63.8955 15.5343 63.6861 15.3683 63.6861 14.709V8.69462L63.7813 6.76413H63.234L59.9645 7.23371V8.05903L60.2834 8.11595C61.1686 8.24401 61.4303 8.49066 61.4303 9.10728V14.4671C60.5832 15.1217 59.7742 15.5344 58.8128 15.5344C57.7468 15.5344 57.0853 14.9936 57.0853 13.7319V8.69936L57.1805 6.76887H56.6189L53.3446 7.23845V8.06377L53.6825 8.12069C54.5677 8.24876 54.8295 8.4954 54.8295 9.11202V14.0592C54.8295 16.1557 56.0192 17.1518 57.9134 17.1518C59.3601 17.1518 60.5451 16.3834 61.4351 15.3162L61.3399 17.1518L61.3351 17.147ZM51.8265 10.4733C51.8265 7.79341 50.3988 6.76413 47.8193 6.76413C45.5445 6.76413 43.8931 7.70329 43.8931 9.25906C43.8931 9.7239 44.0596 10.0796 44.3975 10.3263L46.1298 10.0986C46.0537 9.57686 46.0156 9.25906 46.0156 9.12625C46.0156 8.24401 46.4868 7.79815 47.4434 7.79815C48.8568 7.79815 49.5707 8.78948 49.5707 10.3832V10.905L46.0014 11.9722C44.8116 12.2947 44.1358 12.5746 43.6837 13.2291C43.4441 13.6296 43.3282 14.0915 43.3505 14.5572C43.3505 16.0751 44.3975 17.147 46.187 17.147C47.4814 17.147 48.6284 16.5636 49.6278 15.4585C49.9847 16.5636 50.532 17.147 51.5076 17.147C52.2976 17.147 53.0115 16.8292 53.6492 16.2079L53.4588 15.5533C53.1828 15.6292 52.9163 15.6672 52.6355 15.6672C52.0882 15.6672 51.8265 15.2355 51.8265 14.3912V10.4733ZM47.2578 15.6292C46.2821 15.6292 45.6777 15.0648 45.6777 14.0734C45.6777 13.3999 45.9966 13.0062 46.6771 12.7785L49.5707 11.8631V14.6331C48.6474 15.3304 48.1049 15.6292 47.2578 15.6292ZM77.3828 16.4925V15.6482L76.8926 15.6102C76.0836 15.5343 75.8789 15.3683 75.8789 14.709V3.39169L75.9741 1.779H75.2936L72.2858 2.68021V3.16876L73.6184 3.78538V7.49458C72.8682 6.98186 71.9715 6.72554 71.0627 6.76413C68.074 6.76413 65.7421 9.03139 65.7421 12.4228C65.7421 15.2166 67.4173 17.147 70.1775 17.147C71.6053 17.147 72.8474 16.4545 73.6184 15.3826L73.5232 17.147H73.9229L77.3828 16.4925ZM71.1198 7.88827C72.5476 7.88827 73.6184 8.71359 73.6184 10.2314V14.5003C73.2931 14.8235 72.906 15.0782 72.4801 15.2493C72.0541 15.4204 71.598 15.5044 71.1389 15.4964C69.0925 15.4964 68.055 13.8837 68.055 11.7303C68.055 9.31124 69.24 7.88827 71.1198 7.88827ZM84.6975 10.0227C84.431 8.77051 83.66 8.05903 82.5892 8.05903C80.9902 8.05903 79.8813 9.25906 79.8813 10.9809C79.8813 13.528 81.2329 15.1786 83.4173 15.1786C84.1334 15.1714 84.8351 14.9771 85.4522 14.615C86.0694 14.2529 86.5804 13.7358 86.9343 13.1153L87.572 13.2861C87.2865 15.4964 85.2781 17.147 82.8129 17.147C79.9194 17.147 77.9253 15.0126 77.9253 11.9769C77.9253 8.91755 80.0907 6.76413 82.9842 6.76413C85.1449 6.76413 86.6678 8.05903 87.158 10.3073L79.6196 12.6125V11.5975L84.6975 10.0275V10.0227Z" fill="var(--fill-0, black)"/>
</g>
<defs>
<clipPath id="clip0_321_5219">
<rect width="87.5672" height="18.9729" fill="white"/>
</clipPath>
</defs>
</svg>
