<svg preserveAspectRatio="none" width="100%" height="100%" overflow="visible" style="display: block;" viewBox="0 0 104 14" fill="none" xmlns="http://www.w3.org/2000/svg">
<g id="windsurf_logo.svg" clip-path="url(#clip0_321_5209)">
<path id="Vector" fill-rule="evenodd" clip-rule="evenodd" d="M23.147 0.0100736H22.9245C21.7529 0.00824944 20.8021 0.957205 20.8021 2.1288V6.86718C20.8021 7.81341 20.0201 8.57988 19.0894 8.57988C18.5364 8.57988 17.9844 8.30157 17.6569 7.8344L12.8171 0.922532C12.4157 0.348596 11.7624 0.00642367 11.0552 0.00642367C9.95203 0.00642367 8.95929 0.944431 8.95929 2.10234V6.8681C8.95929 7.81432 8.18369 8.58078 7.2466 8.58078C6.69183 8.58078 6.1407 8.30249 5.81313 7.8353L0.397695 0.10132C0.27543 -0.072959 0.00077671 0.0128108 0.00077671 0.226327V4.35884C0.00077671 4.56779 0.0646481 4.77037 0.184184 4.9419L5.51293 12.5527C5.82773 13.0025 6.29217 13.3365 6.82779 13.4579C8.16818 13.7626 9.40183 12.7307 9.40183 11.4158V6.65276C9.40183 5.70654 10.1683 4.94008 11.1145 4.94008H11.1173C11.6876 4.94008 12.2223 5.21838 12.5498 5.68555L17.3894 12.5965C17.7918 13.1713 18.4114 13.5126 19.1505 13.5126C20.2784 13.5126 21.2446 12.5736 21.2446 11.4167V6.65185C21.2446 5.70564 22.011 4.93917 22.9573 4.93917H23.1461C23.2648 4.93917 23.3606 4.84336 23.3606 4.72474V0.223589C23.3606 0.10497 23.2648 0.00916079 23.1461 0.00916079L23.147 0.0100736ZM50.9304 3.57596H49.7461C49.6256 3.57596 49.528 3.67359 49.528 3.79403V13.2927C49.528 13.4131 49.6256 13.5108 49.7461 13.5108H50.9304C51.0509 13.5108 51.1485 13.4131 51.1485 13.2927V3.79403C51.1485 3.67359 51.0509 3.57596 50.9304 3.57596ZM49.7068 0.00733655H50.9688C51.0891 0.00733655 51.1868 0.104971 51.1868 0.225415V1.7766C51.1868 1.89703 51.0891 1.99467 50.9688 1.99467H49.7068C49.5863 1.99467 49.4887 1.89703 49.4887 1.7766V0.225415C49.4887 0.104971 49.5863 0.00733655 49.7068 0.00733655ZM58.0194 3.30587C56.6882 3.30587 55.7237 3.76849 55.106 4.44462C54.908 4.64536 54.5658 4.50484 54.5658 4.22289V3.79403C54.5658 3.67359 54.4682 3.57596 54.3477 3.57596H53.1834C53.063 3.57596 52.9653 3.67359 52.9653 3.79403V13.2927C52.9653 13.4131 53.063 13.5108 53.1834 13.5108H54.3486C54.4691 13.5108 54.5667 13.4131 54.5667 13.2927V7.27962C54.5667 5.19557 54.9719 4.73295 57.191 4.73295C59.41 4.73295 59.7759 5.09976 59.7759 7.1829V13.2918C59.7759 13.4122 59.8735 13.5098 59.994 13.5098H61.1784C61.2988 13.5098 61.3965 13.4122 61.3965 13.2918V6.73854C61.3965 4.36524 60.0461 3.30405 58.0204 3.30405V3.30587H58.0194ZM70.1187 4.57966C70.3167 4.7804 70.6588 4.63988 70.6588 4.35793V0.226325C70.6588 0.105881 70.7565 0.00824944 70.8769 0.00824944H72.0421C72.1625 0.00824944 72.2602 0.105881 72.2602 0.226325V13.2936C72.2602 13.414 72.1625 13.5117 72.0421 13.5117H70.8769C70.7565 13.5117 70.6588 13.414 70.6588 13.2936V12.7298C70.6707 12.4414 70.3212 12.3027 70.1187 12.508C69.5594 13.2023 68.479 13.7809 67.0318 13.7809C64.4861 13.7809 62.8263 11.9678 62.8263 8.59173C62.8263 5.02311 64.6777 3.30587 67.0893 3.30587C68.5365 3.30587 69.5785 3.88527 70.1187 4.57966ZM64.5809 8.5525C64.5809 11.8127 64.9861 12.2954 67.6295 12.2954C70.2537 12.2954 70.6588 11.8127 70.6588 8.5525C70.6588 5.29229 70.2729 4.79043 67.6295 4.79043C64.9861 4.79043 64.5809 5.29229 64.5809 8.5525ZM79.0325 7.93659L77.1236 7.60902C75.7148 7.35809 75.4639 6.9338 75.4639 6.20018C75.483 5.19648 75.869 4.69554 77.7404 4.69554C79.4933 4.69554 80.0545 5.21382 80.1749 6.33249C80.1868 6.4429 80.2799 6.52776 80.3912 6.52776H81.549C81.6731 6.52776 81.7744 6.42374 81.7671 6.29873C81.6549 4.37801 79.8966 3.30496 77.7989 3.30496C75.4448 3.30496 73.8826 4.55867 73.8826 6.35348C73.8826 7.99316 75.1564 8.70762 76.6802 8.99686L78.7834 9.38284C79.9414 9.59543 80.3273 9.98141 80.3273 10.7141C80.3273 11.8912 79.9221 12.3931 77.9348 12.3931C75.9475 12.3931 75.3981 11.82 75.2704 10.6585C75.2585 10.548 75.1655 10.4641 75.0542 10.4641H73.889C73.7667 10.4641 73.6673 10.5654 73.67 10.6877C73.7257 12.7571 75.6017 13.7827 77.8371 13.7827C80.268 13.7827 81.946 12.529 81.946 10.6374C81.946 8.97861 80.6722 8.22584 79.0325 7.93659ZM87.4654 12.3547C89.6261 12.3547 90.0312 11.8921 90.0312 9.80803V3.79677C90.0312 3.67633 90.1288 3.5787 90.2492 3.5787H91.4336C91.554 3.5787 91.6517 3.67633 91.6517 3.79677V13.2955C91.6517 13.4159 91.554 13.5136 91.4336 13.5136H90.2492C90.1288 13.5136 90.0312 13.4159 90.0312 13.2955V12.8812C90.0266 12.5864 89.7209 12.4396 89.5101 12.6458C88.8933 13.321 87.9289 13.7836 86.6359 13.7836C84.6485 13.7836 83.2981 12.7224 83.2981 10.3492V3.79586C83.2981 3.67542 83.3958 3.57778 83.5163 3.57778H84.7006C84.8211 3.57778 84.9187 3.67542 84.9187 3.79586V9.90476C84.9187 11.9879 85.3046 12.3547 87.4654 12.3547ZM101.128 3.57596V2.30217C101.128 1.80123 101.534 1.39518 102.036 1.39518H102.917C103.037 1.39518 103.135 1.29756 103.135 1.17711V0.224502C103.135 0.104058 103.037 0.00642367 102.917 0.00642367H102.306C100.569 0.00642367 99.508 0.970891 99.508 2.63065V3.57596H98.2241C97.0863 3.57778 96.193 3.73381 95.5972 4.44462C95.3782 4.65174 95.0762 4.49663 95.0762 4.19552V3.79495C95.0762 3.6745 94.9786 3.57687 94.8581 3.57687H93.6738C93.5533 3.57687 93.4556 3.6745 93.4556 3.79495V13.2936C93.4556 13.414 93.5533 13.5117 93.6738 13.5117H94.8581C94.9786 13.5117 95.0762 13.414 95.0762 13.2936V7.33893C95.0762 5.37076 95.578 4.90814 97.7387 4.90814H99.508V13.2945C99.508 13.415 99.6056 13.5126 99.726 13.5126H100.911C101.031 13.5126 101.128 13.415 101.128 13.2945V4.90814H102.919C103.039 4.90814 103.137 4.81052 103.137 4.69007V3.79586C103.137 3.67542 103.039 3.57778 102.919 3.57778H101.128V3.57596ZM42.9337 11.0335C42.9756 11.2078 43.1318 11.331 43.3105 11.331H43.3114C43.4894 11.331 43.6445 11.2096 43.6874 11.0371L46.4038 0.172493C46.4284 0.0748579 46.516 0.00642367 46.6164 0.00642367H47.9723C48.1174 0.00642367 48.2232 0.143294 48.1867 0.283812L44.7695 13.3529C44.745 13.4451 44.6619 13.5098 44.5661 13.5098H42.1471C42.0495 13.5098 41.9647 13.4433 41.9401 13.3493L39.1014 2.41714C39.0576 2.24651 38.9034 2.12698 38.7264 2.12698H38.7017C38.5256 2.12698 38.3714 2.24651 38.3268 2.41714L35.489 13.3493C35.4643 13.4442 35.3794 13.5098 35.2818 13.5098H32.8629C32.7671 13.5098 32.6832 13.4451 32.6594 13.3529L29.2423 0.283812C29.2058 0.143294 29.3116 0.00642367 29.4568 0.00642367H30.8126C30.913 0.00642367 31.0006 0.0748579 31.0253 0.172493L33.7407 11.0371C33.7835 11.2096 33.9378 11.331 34.1166 11.331C34.2955 11.331 34.4515 11.2078 34.4935 11.0335L37.104 0.174318C37.1277 0.0757723 37.2153 0.00642367 37.3167 0.00642367H40.1115C40.2127 0.00642367 40.3004 0.0757723 40.3241 0.174318L42.9337 11.0335Z" fill="var(--fill-0, black)"/>
</g>
<defs>
<clipPath id="clip0_321_5209">
<rect width="103.136" height="13.7985" fill="white"/>
</clipPath>
</defs>
</svg>
