<svg preserveAspectRatio="none" width="100%" height="100%" overflow="visible" style="display: block;" viewBox="0 0 91 18" fill="none" xmlns="http://www.w3.org/2000/svg">
<g id="Logo.svg">
<path id="Vector" d="M7.04243 8.54175C7.04243 4.53258 9.56988 2.28659 13.2629 2.28659H17.6979V4.67501H13.4042C11.1428 4.67501 9.60556 5.97642 9.60556 8.54175C9.60556 11.1071 11.1428 12.4085 13.4042 12.4085H17.6979V14.7969H13.2629C9.56988 14.7969 7.04243 12.5164 7.04243 8.54175ZM19.9943 10.8058V2.28823H22.4683V10.2886C22.4683 11.8389 23.2637 12.3906 24.5705 12.3906H26.0542C27.3448 12.3906 28.1565 11.8389 28.1565 10.2886V2.28823H30.6126V10.8238C30.6126 13.5151 28.8464 14.7971 26.4602 14.7971H24.1632C21.7605 14.7971 19.9929 13.5136 19.9929 10.8058H19.9943ZM33.2807 2.28823H40.6134C43.123 2.28823 44.3778 3.64211 44.3778 5.81612C44.3778 7.20598 43.7236 8.32898 42.6815 8.63183C43.7593 8.75628 44.2723 9.54043 44.2723 10.485V14.7971H41.7805V11.0727C41.7805 10.413 41.5857 9.94973 40.7026 9.94973H35.7726V14.7971H33.2807V2.28823ZM40.2788 7.61679C41.4103 7.61679 41.8696 7.01107 41.8696 6.12048C41.8696 5.15791 41.4103 4.64214 40.2447 4.64214H35.774V7.6183H40.2804L40.2788 7.61679ZM46.586 12.4265H53.425C54.2559 12.4265 54.7853 11.9632 54.7853 11.1251C54.7853 10.2525 54.2381 9.91362 53.3714 9.84166L49.9251 9.57479C47.7515 9.41436 46.2678 8.30936 46.2678 5.95692C46.2678 3.62249 47.9106 2.2866 50.0664 2.2866H56.834V4.65702H50.2077C49.2532 4.65702 48.758 5.12031 48.758 5.94044C48.758 6.79505 49.2887 7.15189 50.2254 7.24185L53.7237 7.49072C55.8617 7.65116 57.2755 8.79213 57.2755 11.0906C57.2755 13.3005 55.774 14.7969 53.6004 14.7969H46.5844V12.4265H46.586ZM58.5299 8.52393C58.5299 4.72766 61.2507 2.07387 64.8917 2.07387H64.9274C68.567 2.07387 71.307 4.72916 71.307 8.52393C71.307 12.3367 68.5684 15.0099 64.9274 15.0099H64.8917C61.2522 15.0099 58.5299 12.3367 58.5299 8.52393ZM64.9096 12.5871C67.153 12.5871 68.7973 10.9828 68.7973 8.54193C68.7973 6.11903 67.1545 4.49677 64.9096 4.49677C62.6824 4.49677 61.0395 6.11903 61.0395 8.54193C61.0395 10.9828 62.6824 12.5871 64.9096 12.5871ZM73.2663 2.28823H80.5989C83.1084 2.28823 84.3633 3.64211 84.3633 5.81612C84.3633 7.20598 83.7091 8.32898 82.6669 8.63183C83.7448 8.75628 84.2577 9.54043 84.2577 10.485V14.7971H81.766V11.0727C81.766 10.413 81.5712 9.94973 80.688 9.94973H75.758V14.7971H73.2663V2.28823ZM80.2644 7.61679C81.3957 7.61679 81.8552 7.01107 81.8552 6.12048C81.8552 5.15791 81.3957 4.64214 80.2302 4.64214H75.7596V7.6183H80.2658L80.2644 7.61679Z" fill="var(--fill-0, black)"/>
</g>
</svg>
